<?xml version="1.0" encoding="UTF-8"?><svg id="Camada_1" xmlns="http://www.w3.org/2000/svg" viewBox="0 0 255.89 98.34"><defs><style>.cls-1{opacity:.48;}.cls-1,.cls-2{isolation:isolate;}.cls-1,.cls-3{fill:#4a9c9e;}.cls-2{opacity:.39;}.cls-2,.cls-4{fill:#204584;}</style></defs><g><g><polygon class="cls-4" points="140.15 27.64 133.08 27.64 133.08 20.57 125.91 20.57 125.91 27.64 118.84 27.64 118.84 34.81 125.91 34.81 125.91 41.88 133.08 41.88 133.08 34.81 140.15 34.81 140.15 27.64"/><path class="cls-2" d="m136.67,34.81h3.47v-7.17h-7.07v-7.07h-7.17v3.06c2.24,4.71,6.23,8.48,10.77,11.17Z"/></g><g><path class="cls-3" d="m138.98,46.92c-1.61.79-9.4,0-9.49.93-.24,2.69,5.07,3.61,6.5,3.9,5.97,1.21,10.74-2.34,17.72-8.9,7.2-6.78,12.73-16.9,12.09-26.03-.9-12.88-12.47-19.42-22.76-15.86-6.73,2.33-10.77,6.11-12.74,8.42-.79.92-2.2.92-2.99,0-1.97-2.31-6.01-6.09-12.74-8.42-10.29-3.56-21.77,3.33-23.97,15.5-2.65,14.66,7.2,31.52,24.19,42.01,4.25,2.63,17.22,7.37,23.76,5.45,4.27-1.25,15.08-9.8,13.9-10.97-2.97-2.95-10.04,4.45-15.34,4.08-4.97-.34-8.25-1.24-9.94-3.73-2.75-4.04-2.19-9.34-3.52-8.89-3.21-1.07-1.04,7.16-3.75,5.51-11.48-6.93-18.16-18.23-16.39-28.04,1.46-8.05,9.05-12.62,15.87-10.26,3.98,1.38,6.54,3.52,7.97,5.05.79.85,2.12.85,2.91,0,1.43-1.53,3.99-3.68,7.97-5.05,6.81-2.36,14.41,2.2,15.87,10.26,1.13,6.27-1.2,13.14-6.02,19.1-2.07-.79-6.68-3.5-8.02-1.43-.81,1.26,1.95,2.14,2.3,3.13.51,1.46-2.16,3.64-3.39,4.24Z"/><path class="cls-1" d="m138.22,60.36c4.54-.73,9.45-5.6,14.3-7.3-.01-.04-.04-.08-.07-.12-2.97-2.95-10.04,4.45-15.34,4.08-4.97-.34-8.25-1.24-9.94-3.73-2.75-4.04-2.19-9.34-3.52-8.89-3.21-1.07-1.04,7.16-3.75,5.51-11.48-6.93-18.16-18.23-16.39-28.04,1.46-8.05,9.05-12.62,15.87-10.26,1.78.62,3.26,1.39,4.5,2.18-5.04-3.73-10.03-6.87-16.45-5.24-4.16,1.06-8.22,5.48-9.13,9.69-4.98,22.94,23.02,44.8,39.92,42.1Z"/><path class="cls-1" d="m165.8,16.82c-.9-12.88-12.47-19.42-22.76-15.86-3.44,1.19-6.16,2.75-8.28,4.31.04.22,8.72-3.13,13.9-1.76,10.23,2.69,12.56,12.22,11.14,21.32-1.26,8.02-10.2,21.19-20.61,24.9-2.1.75-7.03-.24-8.93-2.24-.47.08-.75.19-.77.37-.24,2.69,5.07,3.61,6.5,3.9,5.97,1.21,10.74-2.34,17.72-8.9,7.2-6.78,12.73-16.9,12.09-26.03Z"/></g></g><g><path class="cls-4" d="m3.63,97.75c-1.06-.39-2.07-1.02-3.03-1.89-.4-.34-.59-.73-.59-1.16,0-.34.13-.65.4-.92s.58-.41.94-.41c.32,0,.59.11.82.31.75.7,1.54,1.21,2.34,1.54.8.33,1.72.5,2.74.5,1.19,0,2.2-.28,3.02-.82s1.23-1.24,1.23-2.07c-.02-.98-.43-1.74-1.23-2.28-.8-.54-2.03-.99-3.67-1.35-1.95-.4-3.44-1.05-4.5-1.96-1.05-.91-1.57-2.16-1.57-3.77,0-1.12.29-2.1.88-2.94.59-.84,1.4-1.49,2.44-1.94s2.21-.68,3.52-.68c1.17,0,2.28.19,3.32.57s1.88.88,2.52,1.5c.44.38.65.79.65,1.22,0,.34-.13.64-.38.91-.25.26-.56.4-.92.4-.26,0-.48-.08-.65-.22-.49-.49-1.17-.91-2.04-1.25-.87-.34-1.7-.51-2.49-.51-1.27,0-2.27.26-3.02.78-.75.52-1.12,1.2-1.12,2.06,0,.93.37,1.64,1.12,2.13s1.86.91,3.33,1.25c1.48.32,2.68.7,3.61,1.13s1.66,1.04,2.17,1.82.77,1.79.77,3.03c0,1.1-.31,2.07-.92,2.92-.62.85-1.45,1.51-2.51,1.99-1.06.47-2.22.71-3.49.71-1.37,0-2.6-.19-3.65-.58Z"/><path class="cls-4" d="m33.13,96.83c0,.38-.13.69-.38.94-.25.25-.55.37-.89.37-.26,0-.51-.08-.73-.24-.22-.16-.39-.38-.53-.67l-1.76-4.17h-8.76l-1.73,4.2c-.09.28-.25.5-.47.65-.22.15-.46.23-.73.23-.4,0-.7-.11-.91-.31s-.31-.49-.31-.85c0-.08.02-.23.06-.45l7.23-17.53c.13-.3.32-.53.55-.7.24-.16.5-.22.81-.18.28,0,.54.08.77.23.23.15.39.37.48.65l7.2,17.3c.05.17.08.35.08.54Zm-11.97-6.36h6.61l-3.32-7.94-3.29,7.94Z"/><path class="cls-4" d="m50.73,78.55c.24.25.36.58.36.98v10.89c0,1.49-.33,2.84-.99,4.03s-1.57,2.12-2.74,2.8c-1.16.67-2.47,1.01-3.93,1.01s-2.8-.34-3.97-1.01c-1.17-.67-2.09-1.6-2.75-2.8-.66-1.19-.99-2.53-.99-4.03v-10.89c0-.4.13-.73.4-.98s.61-.38,1.02-.38c.36,0,.67.13.95.4.28.26.41.59.41.96v10.89c0,.98.23,1.87.68,2.65s1.06,1.4,1.82,1.83c.75.44,1.57.65,2.44.65s1.75-.22,2.52-.65c.78-.44,1.39-1.04,1.86-1.83.46-.78.7-1.67.7-2.65v-10.89c0-.4.11-.73.34-.98s.54-.38.94-.38c.4,0,.71.13.95.39Zm-7.94-1.73c-.16-.14-.24-.34-.24-.58s.11-.46.34-.65l2.49-2.1c.4-.32.78-.48,1.13-.48.32,0,.61.11.87.34s.38.5.38.82c0,.25-.08.48-.22.71-.15.22-.36.41-.62.54l-2.81,1.45c-.23.11-.45.17-.65.17-.29,0-.51-.08-.67-.22Z"/><path class="cls-4" d="m68.7,79.53c1.27.89,2.22,2.08,2.86,3.59s.96,3.17.96,5.01-.32,3.53-.96,5.03c-.64,1.5-1.6,2.69-2.86,3.58-1.27.88-2.79,1.32-4.56,1.32h-6.98c-.38,0-.7-.13-.96-.4-.26-.26-.4-.59-.4-.96v-17.13c0-.38.13-.7.4-.96s.59-.4.96-.4h6.98c1.78,0,3.3.44,4.56,1.33Zm-.51,13.85c.96-1.37,1.45-3.13,1.45-5.26s-.49-3.87-1.46-5.25-2.41-2.07-4.33-2.07h-5.25v14.64h5.25c1.93,0,3.38-.69,4.34-2.06Z"/><path class="cls-4" d="m88.34,95.84c.25.26.38.58.38.94,0,.38-.13.69-.38.92-.25.24-.58.36-.98.36h-9.87c-.38,0-.7-.13-.96-.4-.26-.26-.4-.59-.4-.96v-17.13c0-.38.13-.7.4-.96s.59-.4.96-.4h9.87c.4,0,.73.12.98.37s.38.57.38.96c0,.38-.13.69-.38.92-.25.24-.58.36-.98.36h-8.42v5.79h7.15c.4,0,.72.12.98.37s.38.56.38.94-.13.71-.38.94c-.25.23-.58.34-.98.34h-7.15v6.27h8.42c.4,0,.73.13.98.39Z"/><path class="cls-3" d="m103.01,79.01c.85.54,1.53,1.27,2.03,2.2.5.93.75,1.95.75,3.06s-.25,2.15-.75,3.09c-.5.95-1.18,1.69-2.03,2.24-.85.55-1.78.82-2.78.82h-5.33v6.27c0,.38-.12.7-.37.96s-.56.4-.94.4-.71-.13-.95-.38c-.24-.25-.36-.58-.36-.98v-17.13c0-.38.13-.7.4-.96s.59-.4.96-.4h6.58c1.01,0,1.94.27,2.78.81Zm-1.36,8.34c.44-.33.78-.77,1.03-1.32.25-.55.38-1.13.38-1.76,0-.96-.28-1.78-.84-2.45-.56-.67-1.23-1.01-2-1.01h-5.33v7.03h5.33c.51,0,.99-.16,1.42-.49Z"/><path class="cls-3" d="m123.52,96.83c0,.38-.13.69-.38.94-.25.25-.55.37-.89.37-.26,0-.51-.08-.73-.24-.22-.16-.39-.38-.53-.67l-1.76-4.17h-8.76l-1.73,4.2c-.09.28-.25.5-.47.65s-.46.23-.73.23c-.4,0-.7-.11-.91-.31s-.31-.49-.31-.85c0-.08.02-.23.06-.45l7.23-17.53c.13-.3.32-.53.55-.7.24-.16.5-.22.81-.18.28,0,.54.08.77.23.23.15.39.37.48.65l7.2,17.3c.05.17.08.34.08.54Zm-11.97-6.36h6.61l-3.32-7.94-3.29,7.94Z"/><path class="cls-3" d="m141.96,96.28c.11.2.17.4.17.61,0,.4-.13.69-.38.88-.25.19-.56.28-.92.28s-.66-.08-.91-.23c-.57-.32-1.03-.84-1.39-1.56s-.54-1.78-.54-3.18c0-.95-.28-1.65-.85-2.1-.57-.45-1.31-.68-2.21-.68h-5.73v6.38c0,.4-.11.73-.34.98s-.52.38-.88.38c-.44,0-.81-.13-1.12-.4s-.47-.59-.47-.96v-17.13c0-.38.13-.7.4-.96.26-.26.59-.4.96-.4h7.97c1.02,0,1.96.25,2.81.75.85.5,1.53,1.19,2.04,2.07s.77,1.87.77,2.96-.28,2.05-.85,2.96-1.29,1.6-2.18,2.06c.7.36,1.25.86,1.66,1.5.41.64.63,1.39.67,2.24.08,1.08.16,1.81.25,2.2s.3.67.62.84c.2.14.35.3.46.5Zm-4.95-8.89c.42-.34.77-.8,1.04-1.37.26-.58.4-1.23.4-1.94,0-.91-.28-1.68-.84-2.31s-1.23-.95-2.03-.95h-6.38v7.15h6.46c.47-.04.92-.23,1.35-.57Z"/><path class="cls-3" d="m161.02,96.83c0,.38-.13.69-.38.94-.25.25-.55.37-.89.37-.26,0-.51-.08-.73-.24-.22-.16-.39-.38-.53-.67l-1.75-4.17h-8.76l-1.73,4.2c-.09.28-.25.5-.47.65s-.46.23-.73.23c-.4,0-.7-.11-.91-.31s-.31-.49-.31-.85c0-.08.02-.23.06-.45l7.23-17.53c.13-.3.32-.53.55-.7.24-.16.5-.22.81-.18.28,0,.54.08.77.23.23.15.39.37.48.65l7.2,17.3c.05.17.08.34.08.54Zm-11.97-6.36h6.61l-3.32-7.94-3.29,7.94Z"/><path class="cls-4" d="m176.32,78.55c.25.24.38.55.38.95s-.13.71-.38.94-.58.34-.98.34h-5.05v15.91c0,.38-.14.7-.41.96-.28.26-.62.4-1.04.4s-.76-.13-1.04-.4c-.28-.26-.41-.59-.41-.96v-15.91h-5.02c-.4,0-.72-.12-.98-.36-.25-.24-.38-.55-.38-.95s.13-.69.38-.92c.25-.24.58-.36.98-.36h12.96c.4,0,.72.12.98.36Z"/><path class="cls-4" d="m196.21,93.32c-.82,1.55-1.96,2.77-3.42,3.67s-3.1,1.35-4.93,1.35-3.48-.45-4.93-1.35c-1.46-.9-2.6-2.12-3.42-3.67s-1.23-3.28-1.23-5.19.41-3.64,1.23-5.19,1.96-2.77,3.42-3.67,3.1-1.35,4.93-1.35,3.48.45,4.93,1.35c1.46.9,2.6,2.12,3.42,3.67s1.23,3.28,1.23,5.19-.41,3.64-1.23,5.19Zm-2.54-9.04c-.57-1.15-1.36-2.04-2.37-2.69-1.01-.65-2.16-.98-3.44-.98s-2.43.32-3.44.96c-1.01.64-1.8,1.54-2.37,2.68s-.85,2.43-.85,3.87.28,2.7.85,3.84c.57,1.15,1.36,2.04,2.37,2.69,1.01.65,2.16.98,3.44.98s2.43-.33,3.44-.98,1.8-1.55,2.37-2.69c.57-1.15.85-2.43.85-3.84s-.28-2.7-.85-3.84Z"/><path class="cls-4" d="m213.92,79.53c1.27.89,2.22,2.08,2.86,3.59s.96,3.17.96,5.01-.32,3.53-.96,5.03c-.64,1.5-1.6,2.69-2.86,3.58-1.27.88-2.79,1.32-4.56,1.32h-6.98c-.38,0-.7-.13-.96-.4-.26-.26-.4-.59-.4-.96v-17.13c0-.38.13-.7.4-.96.26-.26.59-.4.96-.4h6.98c1.77,0,3.3.44,4.56,1.33Zm-.51,13.85c.96-1.37,1.45-3.13,1.45-5.26s-.49-3.87-1.46-5.25-2.41-2.07-4.33-2.07h-5.25v14.64h5.25c1.93,0,3.38-.69,4.34-2.06Z"/><path class="cls-4" d="m238.15,93.32c-.82,1.55-1.96,2.77-3.42,3.67s-3.1,1.35-4.93,1.35-3.48-.45-4.93-1.35c-1.46-.9-2.6-2.12-3.42-3.67s-1.23-3.28-1.23-5.19.41-3.64,1.23-5.19,1.96-2.77,3.42-3.67,3.1-1.35,4.93-1.35,3.48.45,4.93,1.35c1.46.9,2.6,2.12,3.42,3.67s1.23,3.28,1.23,5.19-.41,3.64-1.23,5.19Zm-2.54-9.04c-.57-1.15-1.36-2.04-2.37-2.69-1.01-.65-2.16-.98-3.44-.98s-2.43.32-3.44.96c-1.01.64-1.8,1.54-2.37,2.68s-.85,2.43-.85,3.87.28,2.7.85,3.84c.57,1.15,1.36,2.04,2.37,2.69,1.01.65,2.16.98,3.44.98s2.43-.33,3.44-.98,1.8-1.55,2.37-2.69c.57-1.15.85-2.43.85-3.84s-.29-2.7-.85-3.84Z"/><path class="cls-4" d="m245.31,97.75c-1.06-.39-2.07-1.02-3.03-1.89-.4-.34-.59-.73-.59-1.16,0-.34.13-.65.4-.92.26-.27.58-.41.94-.41.32,0,.59.11.82.31.75.7,1.54,1.21,2.34,1.54.8.33,1.72.5,2.74.5,1.19,0,2.2-.28,3.02-.82s1.23-1.24,1.23-2.07c-.02-.98-.43-1.74-1.23-2.28-.8-.54-2.03-.99-3.67-1.35-1.95-.4-3.44-1.05-4.5-1.96-1.05-.91-1.57-2.16-1.57-3.77,0-1.12.29-2.1.88-2.94.59-.84,1.4-1.49,2.44-1.94s2.21-.68,3.52-.68c1.17,0,2.28.19,3.32.57s1.88.88,2.52,1.5c.44.38.65.79.65,1.22,0,.34-.13.64-.38.91-.25.26-.56.4-.92.4-.26,0-.48-.08-.65-.22-.49-.49-1.17-.91-2.04-1.25s-1.7-.51-2.49-.51c-1.27,0-2.27.26-3.02.78-.75.52-1.12,1.2-1.12,2.06,0,.93.37,1.64,1.12,2.13s1.86.91,3.33,1.25c1.48.32,2.68.7,3.61,1.13.94.44,1.66,1.04,2.17,1.82s.77,1.79.77,3.03c0,1.1-.31,2.07-.92,2.92-.62.85-1.45,1.51-2.51,1.99-1.06.47-2.22.71-3.49.71-1.37,0-2.6-.19-3.65-.58Z"/></g></svg>