<?xml version="1.0" encoding="utf-8"?>
<!-- Generator: Adobe Illustrator 27.1.1, SVG Export Plug-In . SVG Version: 6.00 Build 0)  -->
<svg version="1.1" id="Camada_1" xmlns="http://www.w3.org/2000/svg" xmlns:xlink="http://www.w3.org/1999/xlink" x="0px" y="0px"
	 viewBox="0 0 1080 1080" style="enable-background:new 0 0 1080 1080;" xml:space="preserve">
<style type="text/css">
	.st0{fill:#FFFFFF;}
	.st1{fill:#204584;}
	.st2{opacity:0.39;fill:#204584;}
	.st3{fill:#4A9C9E;}
	.st4{opacity:0.48;fill:#4A9C9E;}
</style>
<rect class="st0" width="1080" height="1080"/>
<g>
	<g>
		<g>
			<g>
				<polygon class="st1" points="573.45,470.58 553.97,470.58 553.97,451.09 534.18,451.09 534.18,470.58 514.7,470.58 
					514.7,490.36 534.18,490.36 534.18,509.84 553.97,509.84 553.97,490.36 573.45,490.36 				"/>
				<path class="st2" d="M563.87,490.36h9.58v-19.78h-19.49v-19.49h-19.78v8.45C540.35,472.54,551.37,482.93,563.87,490.36z"/>
			</g>
		</g>
		<g>
			<g>
				<path class="st3" d="M570.24,523.75c-4.43,2.17-25.93,0-26.16,2.57c-0.67,7.42,13.98,9.96,17.93,10.76
					c16.47,3.35,29.61-6.44,48.86-24.54c19.87-18.69,35.11-46.61,33.34-71.79c-2.49-35.51-34.38-53.56-62.76-43.74
					c-18.57,6.43-29.7,16.84-35.14,23.22c-2.17,2.55-6.08,2.55-8.25,0c-5.44-6.38-16.57-16.79-35.14-23.22
					c-28.38-9.82-60.03,9.19-66.1,42.74c-7.31,40.42,19.85,86.93,66.72,115.86c11.72,7.24,47.49,20.32,65.52,15.02
					c11.77-3.46,41.58-27.02,38.33-30.26c-8.18-8.14-27.68,12.26-42.3,11.26c-13.7-0.93-22.74-3.43-27.41-10.28
					c-7.59-11.13-6.04-25.75-9.72-24.52c-8.84-2.96-2.86,19.74-10.35,15.21c-31.65-19.11-50.08-50.27-45.19-77.33
					c4.02-22.21,24.97-34.8,43.76-28.3c10.99,3.8,18.04,9.71,21.99,13.94c2.18,2.34,5.84,2.34,8.02,0
					c3.95-4.23,11-10.14,21.99-13.94c18.79-6.5,39.74,6.08,43.76,28.3c3.13,17.29-3.3,36.25-16.59,52.67
					c-5.72-2.18-18.41-9.66-22.11-3.94c-2.24,3.47,5.39,5.9,6.34,8.62C580.99,516.09,573.61,522.1,570.24,523.75z"/>
				<path class="st4" d="M568.15,560.82c12.53-2,26.05-15.44,39.44-20.14c-0.04-0.12-0.1-0.23-0.19-0.32
					c-8.18-8.14-27.68,12.26-42.3,11.26c-13.7-0.93-22.74-3.43-27.41-10.28c-7.59-11.13-6.04-25.75-9.72-24.52
					c-8.84-2.96-2.86,19.74-10.35,15.21c-31.65-19.11-50.08-50.27-45.19-77.33c4.02-22.21,24.97-34.8,43.76-28.3
					c4.91,1.7,8.99,3.82,12.4,6.02c-13.89-10.29-27.67-18.94-45.37-14.45c-11.47,2.91-22.66,15.1-25.18,26.73
					C444.31,507.96,521.53,568.25,568.15,560.82z"/>
				<path class="st4" d="M644.21,440.74c-2.49-35.51-34.38-53.56-62.76-43.74c-9.48,3.28-17,7.59-22.83,11.88
					c0.1,0.61,24.05-8.62,38.34-4.86c28.21,7.42,34.65,33.7,30.72,58.8c-3.47,22.11-28.12,58.43-56.85,68.68
					c-5.79,2.07-19.38-0.67-24.63-6.19c-1.29,0.21-2.08,0.52-2.12,1.01c-0.67,7.42,13.98,9.96,17.93,10.76
					c16.47,3.35,29.61-6.44,48.86-24.54C630.74,493.85,645.98,465.92,644.21,440.74z"/>
			</g>
		</g>
	</g>
	<g>
		<g>
			<path class="st1" d="M196.94,663.95c-2.92-1.07-5.71-2.8-8.37-5.2c-1.09-0.94-1.64-2.01-1.64-3.21c0-0.94,0.36-1.79,1.09-2.54
				c0.73-0.75,1.59-1.13,2.58-1.13c0.89,0,1.64,0.29,2.27,0.86c2.08,1.93,4.24,3.35,6.45,4.26c2.22,0.91,4.73,1.37,7.55,1.37
				c3.29,0,6.06-0.76,8.33-2.27s3.4-3.42,3.4-5.71c-0.05-2.71-1.19-4.81-3.4-6.3c-2.22-1.49-5.59-2.72-10.13-3.72
				c-5.37-1.1-9.5-2.89-12.4-5.4c-2.89-2.5-4.34-5.97-4.34-10.4c0-3.08,0.81-5.78,2.42-8.1c1.62-2.32,3.86-4.11,6.73-5.36
				c2.87-1.25,6.1-1.88,9.7-1.88c3.23,0,6.28,0.52,9.15,1.56c2.87,1.04,5.19,2.42,6.96,4.15c1.2,1.04,1.8,2.17,1.8,3.36
				c0,0.94-0.35,1.77-1.06,2.5c-0.7,0.73-1.55,1.09-2.54,1.09c-0.73,0-1.33-0.21-1.8-0.62c-1.36-1.36-3.23-2.5-5.63-3.44
				c-2.4-0.94-4.69-1.41-6.88-1.41c-3.5,0-6.27,0.72-8.33,2.15c-2.06,1.43-3.09,3.32-3.09,5.67c0,2.56,1.03,4.51,3.09,5.87
				c2.06,1.36,5.12,2.5,9.19,3.44c4.07,0.89,7.39,1.93,9.97,3.13c2.58,1.2,4.58,2.87,5.98,5.01s2.11,4.93,2.11,8.37
				c0,3.02-0.85,5.71-2.54,8.06c-1.7,2.35-4,4.17-6.92,5.48c-2.92,1.3-6.13,1.96-9.62,1.96
				C203.23,665.55,199.86,665.02,196.94,663.95z"/>
			<path class="st1" d="M278.3,661.41c0,1.04-0.35,1.9-1.06,2.58c-0.7,0.68-1.53,1.02-2.46,1.02c-0.73,0-1.4-0.22-2-0.67
				c-0.6-0.44-1.08-1.06-1.45-1.84l-4.85-11.5h-24.17l-4.77,11.58c-0.26,0.78-0.69,1.38-1.29,1.8c-0.6,0.42-1.26,0.63-2,0.63
				c-1.09,0-1.93-0.29-2.5-0.86c-0.57-0.57-0.86-1.36-0.86-2.35c0-0.21,0.05-0.63,0.16-1.25L251,612.2
				c0.36-0.83,0.87-1.47,1.53-1.92c0.65-0.44,1.39-0.61,2.23-0.51c0.78,0,1.49,0.21,2.11,0.63c0.63,0.42,1.07,1.02,1.33,1.8
				l19.87,47.72C278.22,660.39,278.3,660.88,278.3,661.41z M245.29,643.88h18.23l-9.15-21.9L245.29,643.88z"/>
			<path class="st1" d="M326.84,610.99c0.65,0.7,0.98,1.6,0.98,2.7v30.04c0,4.12-0.91,7.82-2.74,11.11
				c-1.83,3.29-4.34,5.85-7.55,7.71c-3.21,1.85-6.82,2.78-10.83,2.78c-4.07,0-7.72-0.93-10.95-2.78c-3.23-1.85-5.76-4.42-7.59-7.71
				c-1.83-3.29-2.74-6.99-2.74-11.11v-30.04c0-1.1,0.36-2,1.09-2.7c0.73-0.7,1.67-1.06,2.82-1.06c0.99,0,1.86,0.37,2.62,1.09
				c0.76,0.73,1.13,1.62,1.13,2.66v30.04c0,2.71,0.63,5.15,1.88,7.31c1.25,2.16,2.92,3.85,5.01,5.05c2.08,1.2,4.33,1.8,6.73,1.8
				c2.5,0,4.82-0.6,6.96-1.8c2.14-1.2,3.84-2.88,5.12-5.05c1.28-2.16,1.92-4.6,1.92-7.31v-30.04c0-1.1,0.31-2,0.94-2.7
				c0.63-0.7,1.49-1.06,2.58-1.06C325.31,609.93,326.18,610.29,326.84,610.99z M304.93,606.22c-0.44-0.39-0.67-0.93-0.67-1.6
				s0.31-1.28,0.94-1.8l6.88-5.79c1.09-0.89,2.14-1.33,3.13-1.33c0.89,0,1.68,0.31,2.39,0.94s1.06,1.38,1.06,2.27
				c0,0.68-0.21,1.33-0.62,1.96c-0.42,0.62-0.99,1.12-1.72,1.49l-7.74,3.99c-0.63,0.31-1.23,0.47-1.8,0.47
				C305.99,606.8,305.38,606.61,304.93,606.22z"/>
			<path class="st1" d="M376.39,613.69c3.49,2.45,6.13,5.75,7.9,9.9c1.77,4.15,2.66,8.75,2.66,13.81c0,5.11-0.89,9.74-2.66,13.88
				c-1.77,4.15-4.41,7.43-7.9,9.86c-3.5,2.42-7.69,3.64-12.59,3.64h-19.24c-1.04,0-1.93-0.36-2.66-1.09
				c-0.73-0.73-1.09-1.62-1.09-2.66v-47.25c0-1.04,0.36-1.93,1.09-2.66c0.73-0.73,1.62-1.09,2.66-1.09h19.24
				C368.7,610.01,372.9,611.24,376.39,613.69z M374.98,651.9c2.66-3.78,3.99-8.62,3.99-14.51c0-5.84-1.34-10.66-4.03-14.47
				c-2.69-3.81-6.66-5.71-11.93-5.71h-14.47v40.37h14.47C368.33,657.57,372.32,655.68,374.98,651.9z"/>
			<path class="st1" d="M430.56,658.67c0.7,0.73,1.06,1.59,1.06,2.58c0,1.04-0.35,1.89-1.06,2.54c-0.7,0.65-1.6,0.98-2.7,0.98
				h-27.22c-1.04,0-1.93-0.36-2.66-1.09c-0.73-0.73-1.09-1.62-1.09-2.66v-47.25c0-1.04,0.36-1.93,1.09-2.66
				c0.73-0.73,1.62-1.09,2.66-1.09h27.22c1.1,0,2,0.34,2.7,1.02c0.7,0.68,1.06,1.56,1.06,2.66c0,1.04-0.35,1.89-1.06,2.54
				c-0.7,0.65-1.6,0.98-2.7,0.98h-23.23v15.96h19.71c1.09,0,1.99,0.34,2.7,1.02s1.06,1.54,1.06,2.58c0,1.09-0.35,1.96-1.06,2.58
				c-0.7,0.63-1.6,0.94-2.7,0.94h-19.71v17.29h23.23C428.96,657.57,429.86,657.94,430.56,658.67z"/>
			<path class="st3" d="M471.04,612.24c2.35,1.49,4.21,3.51,5.59,6.06c1.38,2.56,2.07,5.37,2.07,8.45c0,3.08-0.69,5.92-2.07,8.53
				c-1.38,2.61-3.25,4.67-5.59,6.18c-2.35,1.51-4.9,2.27-7.67,2.27h-14.71v17.29c0,1.04-0.34,1.93-1.02,2.66
				c-0.68,0.73-1.54,1.09-2.58,1.09c-1.09,0-1.97-0.35-2.62-1.06c-0.65-0.7-0.98-1.6-0.98-2.7v-47.25c0-1.04,0.36-1.93,1.09-2.66
				c0.73-0.73,1.62-1.09,2.66-1.09h18.15C466.14,610.01,468.7,610.75,471.04,612.24z M467.29,635.24c1.2-0.91,2.15-2.12,2.85-3.64
				c0.7-1.51,1.06-3.13,1.06-4.85c0-2.66-0.77-4.92-2.31-6.77c-1.54-1.85-3.38-2.78-5.52-2.78h-14.71v19.4h14.71
				C464.79,636.61,466.09,636.15,467.29,635.24z"/>
			<path class="st3" d="M527.6,661.41c0,1.04-0.35,1.9-1.06,2.58c-0.7,0.68-1.53,1.02-2.46,1.02c-0.73,0-1.4-0.22-2-0.67
				c-0.6-0.44-1.08-1.06-1.45-1.84l-4.85-11.5h-24.17l-4.77,11.58c-0.26,0.78-0.69,1.38-1.29,1.8c-0.6,0.42-1.26,0.63-2,0.63
				c-1.09,0-1.93-0.29-2.5-0.86c-0.57-0.57-0.86-1.36-0.86-2.35c0-0.21,0.05-0.63,0.16-1.25l19.95-48.34
				c0.36-0.83,0.87-1.47,1.53-1.92c0.65-0.44,1.39-0.61,2.23-0.51c0.78,0,1.49,0.21,2.11,0.63c0.63,0.42,1.07,1.02,1.33,1.8
				l19.87,47.72C527.52,660.39,527.6,660.88,527.6,661.41z M494.59,643.88h18.23l-9.15-21.9L494.59,643.88z"/>
			<path class="st3" d="M578.45,659.88c0.31,0.55,0.47,1.11,0.47,1.68c0,1.09-0.35,1.9-1.06,2.42c-0.7,0.52-1.55,0.78-2.54,0.78
				c-0.99,0-1.83-0.21-2.5-0.63c-1.56-0.89-2.84-2.32-3.83-4.3c-0.99-1.98-1.49-4.9-1.49-8.76c0-2.61-0.78-4.54-2.35-5.79
				c-1.56-1.25-3.6-1.88-6.1-1.88h-15.8v17.6c0,1.09-0.31,2-0.94,2.7c-0.63,0.7-1.44,1.06-2.43,1.06c-1.2,0-2.23-0.36-3.09-1.09
				s-1.29-1.62-1.29-2.66v-47.25c0-1.04,0.36-1.93,1.09-2.66c0.73-0.73,1.62-1.09,2.66-1.09h21.98c2.82,0,5.4,0.69,7.74,2.07
				c2.35,1.38,4.22,3.29,5.63,5.71s2.11,5.15,2.11,8.17c0,2.92-0.78,5.65-2.35,8.17s-3.57,4.42-6.02,5.67
				c1.93,0.99,3.45,2.37,4.58,4.15c1.12,1.77,1.73,3.83,1.84,6.18c0.21,2.97,0.44,4.99,0.7,6.06c0.26,1.07,0.83,1.84,1.72,2.31
				C577.72,658.88,578.14,659.33,578.45,659.88z M564.8,635.36c1.17-0.94,2.12-2.2,2.86-3.79c0.73-1.59,1.09-3.38,1.09-5.36
				c0-2.5-0.77-4.63-2.31-6.38c-1.54-1.75-3.4-2.62-5.59-2.62h-17.6v19.71h17.83C562.39,636.82,563.62,636.29,564.8,635.36z"/>
			<path class="st3" d="M631.01,661.41c0,1.04-0.35,1.9-1.06,2.58c-0.7,0.68-1.53,1.02-2.46,1.02c-0.73,0-1.4-0.22-2-0.67
				c-0.6-0.44-1.08-1.06-1.45-1.84L619.2,651h-24.17l-4.77,11.58c-0.26,0.78-0.69,1.38-1.29,1.8c-0.6,0.42-1.26,0.63-2,0.63
				c-1.09,0-1.93-0.29-2.5-0.86c-0.57-0.57-0.86-1.36-0.86-2.35c0-0.21,0.05-0.63,0.16-1.25l19.95-48.34
				c0.36-0.83,0.87-1.47,1.53-1.92c0.65-0.44,1.39-0.61,2.23-0.51c0.78,0,1.49,0.21,2.11,0.63c0.63,0.42,1.07,1.02,1.33,1.8
				l19.87,47.72C630.94,660.39,631.01,660.88,631.01,661.41z M598,643.88h18.23l-9.15-21.9L598,643.88z"/>
			<path class="st1" d="M673.22,610.99c0.7,0.65,1.06,1.53,1.06,2.62c0,1.1-0.35,1.96-1.06,2.58s-1.6,0.94-2.7,0.94H656.6v43.88
				c0,1.04-0.38,1.93-1.13,2.66c-0.76,0.73-1.71,1.09-2.86,1.09c-1.15,0-2.1-0.36-2.86-1.09c-0.76-0.73-1.13-1.62-1.13-2.66v-43.88
				h-13.85c-1.09,0-1.99-0.33-2.7-0.98c-0.7-0.65-1.06-1.53-1.06-2.62c0-1.04,0.35-1.89,1.06-2.54c0.7-0.65,1.6-0.98,2.7-0.98h35.75
				C671.62,610.01,672.51,610.34,673.22,610.99z"/>
			<path class="st1" d="M728.06,651.71c-2.27,4.28-5.41,7.65-9.43,10.13c-4.02,2.48-8.55,3.72-13.61,3.72s-9.6-1.24-13.61-3.72
				c-4.02-2.48-7.16-5.85-9.43-10.13c-2.27-4.28-3.4-9.05-3.4-14.32c0-5.27,1.13-10.04,3.4-14.32c2.27-4.28,5.41-7.65,9.43-10.13
				c4.02-2.48,8.55-3.72,13.61-3.72s9.59,1.24,13.61,3.72c4.02,2.48,7.16,5.85,9.43,10.13c2.27,4.28,3.4,9.05,3.4,14.32
				C731.46,642.66,730.32,647.43,728.06,651.71z M721.05,626.79c-1.56-3.16-3.74-5.63-6.53-7.43c-2.79-1.8-5.96-2.7-9.5-2.7
				c-3.55,0-6.71,0.89-9.5,2.66c-2.79,1.77-4.97,4.24-6.53,7.39s-2.35,6.71-2.35,10.68c0,3.91,0.78,7.44,2.35,10.6
				c1.56,3.16,3.74,5.63,6.53,7.43c2.79,1.8,5.96,2.7,9.5,2.7c3.55,0,6.71-0.9,9.5-2.7c2.79-1.8,4.97-4.28,6.53-7.43
				c1.57-3.16,2.35-6.69,2.35-10.6S722.62,629.95,721.05,626.79z"/>
			<path class="st1" d="M776.91,613.69c3.49,2.45,6.13,5.75,7.9,9.9c1.77,4.15,2.66,8.75,2.66,13.81c0,5.11-0.89,9.74-2.66,13.88
				c-1.77,4.15-4.41,7.43-7.9,9.86c-3.5,2.42-7.69,3.64-12.59,3.64h-19.24c-1.04,0-1.93-0.36-2.66-1.09
				c-0.73-0.73-1.09-1.62-1.09-2.66v-47.25c0-1.04,0.36-1.93,1.09-2.66c0.73-0.73,1.62-1.09,2.66-1.09h19.24
				C769.21,610.01,773.41,611.24,776.91,613.69z M775.5,651.9c2.66-3.78,3.99-8.62,3.99-14.51c0-5.84-1.34-10.66-4.03-14.47
				c-2.69-3.81-6.66-5.71-11.93-5.71h-14.47v40.37h14.47C768.85,657.57,772.84,655.68,775.5,651.9z"/>
			<path class="st1" d="M843.75,651.71c-2.27,4.28-5.41,7.65-9.43,10.13c-4.02,2.48-8.55,3.72-13.61,3.72s-9.6-1.24-13.61-3.72
				c-4.02-2.48-7.16-5.85-9.43-10.13c-2.27-4.28-3.4-9.05-3.4-14.32c0-5.27,1.13-10.04,3.4-14.32c2.27-4.28,5.41-7.65,9.43-10.13
				c4.02-2.48,8.55-3.72,13.61-3.72s9.59,1.24,13.61,3.72c4.02,2.48,7.16,5.85,9.43,10.13c2.27,4.28,3.4,9.05,3.4,14.32
				C847.15,642.66,846.02,647.43,843.75,651.71z M836.75,626.79c-1.56-3.16-3.74-5.63-6.53-7.43c-2.79-1.8-5.96-2.7-9.5-2.7
				c-3.55,0-6.71,0.89-9.5,2.66c-2.79,1.77-4.97,4.24-6.53,7.39s-2.35,6.71-2.35,10.68c0,3.91,0.78,7.44,2.35,10.6
				c1.56,3.16,3.74,5.63,6.53,7.43c2.79,1.8,5.96,2.7,9.5,2.7c3.55,0,6.71-0.9,9.5-2.7c2.79-1.8,4.97-4.28,6.53-7.43
				c1.57-3.16,2.35-6.69,2.35-10.6S838.31,629.95,836.75,626.79z"/>
			<path class="st1" d="M863.5,663.95c-2.92-1.07-5.71-2.8-8.37-5.2c-1.09-0.94-1.64-2.01-1.64-3.21c0-0.94,0.36-1.79,1.09-2.54
				c0.73-0.75,1.59-1.13,2.58-1.13c0.89,0,1.64,0.29,2.27,0.86c2.08,1.93,4.24,3.35,6.45,4.26c2.22,0.91,4.73,1.37,7.55,1.37
				c3.29,0,6.06-0.76,8.33-2.27s3.4-3.42,3.4-5.71c-0.05-2.71-1.19-4.81-3.4-6.3c-2.22-1.49-5.59-2.72-10.13-3.72
				c-5.37-1.1-9.5-2.89-12.4-5.4c-2.89-2.5-4.34-5.97-4.34-10.4c0-3.08,0.81-5.78,2.42-8.1c1.62-2.32,3.86-4.11,6.73-5.36
				c2.87-1.25,6.1-1.88,9.7-1.88c3.23,0,6.28,0.52,9.15,1.56c2.87,1.04,5.19,2.42,6.96,4.15c1.2,1.04,1.8,2.17,1.8,3.36
				c0,0.94-0.35,1.77-1.06,2.5c-0.7,0.73-1.55,1.09-2.54,1.09c-0.73,0-1.33-0.21-1.8-0.62c-1.36-1.36-3.23-2.5-5.63-3.44
				c-2.4-0.94-4.69-1.41-6.88-1.41c-3.5,0-6.27,0.72-8.33,2.15c-2.06,1.43-3.09,3.32-3.09,5.67c0,2.56,1.03,4.51,3.09,5.87
				c2.06,1.36,5.12,2.5,9.19,3.44c4.07,0.89,7.39,1.93,9.97,3.13c2.58,1.2,4.58,2.87,5.98,5.01s2.11,4.93,2.11,8.37
				c0,3.02-0.85,5.71-2.54,8.06c-1.7,2.35-4,4.17-6.92,5.48c-2.92,1.3-6.13,1.96-9.62,1.96
				C869.79,665.55,866.42,665.02,863.5,663.95z"/>
		</g>
	</g>
</g>
</svg>
